<svg xmlns="http://www.w3.org/2000/svg" width="640" height="180" viewBox="0 0 640 180" role="img" aria-labelledby="title desc">
  <title id="title">ProPrintFlow</title>
  <desc id="desc">ProPrintFlow application logo</desc>
  <defs>
    <linearGradient id="ppfGrad" x1="0" y1="0" x2="1" y2="1">
      <stop offset="0%" stop-color="#0ea5e9"/>
      <stop offset="100%" stop-color="#2563eb"/>
    </linearGradient>
    <linearGradient id="arrowGrad" x1="0" y1="1" x2="1" y2="0">
      <stop offset="0%" stop-color="#22c55e"/>
      <stop offset="100%" stop-color="#84cc16"/>
    </linearGradient>
  </defs>

  <rect x="12" y="16" width="148" height="148" rx="34" fill="url(#ppfGrad)"/>
  <path d="M46 122V58h42c18 0 30 10 30 26 0 17-12 27-30 27H66v11H46zm20-29h20c8 0 12-4 12-10 0-6-4-9-12-9H66v19z" fill="#ffffff"/>
  <path d="M130 49l26 3-3 26-8-8-25 28-12-11 25-28-8-8z" fill="url(#arrowGrad)"/>

  <g fill="#0f172a">
    <text x="184" y="90" font-family="'Segoe UI', 'Inter', Arial, sans-serif" font-weight="800" font-size="60" letter-spacing="-1.2">ProPrintFlow</text>
    <text x="186" y="126" font-family="'Segoe UI', 'Inter', Arial, sans-serif" font-weight="600" font-size="20" fill="#334155" letter-spacing="1.4">PROFESSIONAL PRINT WORKFLOW</text>
  </g>
</svg>
